<?xml version="1.0" encoding="UTF-8"?>
<svg id="Layer_2" data-name="Layer 2" xmlns="http://www.w3.org/2000/svg" xmlns:xlink="http://www.w3.org/1999/xlink" viewBox="0 0 288.37 158.27">
  <defs>
    <style>
      .cls-1 {
        fill: url(#Degradado_sin_nombre_17);
      }

      .cls-1, .cls-2, .cls-3, .cls-4, .cls-5, .cls-6, .cls-7 {
        stroke-width: 0px;
      }

      .cls-2 {
        fill: url(#Degradado_sin_nombre_26);
      }

      .cls-3 {
        fill: url(#Degradado_sin_nombre_17-3);
      }

      .cls-4 {
        fill: #001738;
      }

      .cls-5 {
        fill: url(#Degradado_sin_nombre_17-2);
      }

      .cls-8 {
        opacity: .4;
      }

      .cls-6 {
        fill: url(#Degradado_sin_nombre_26-2);
      }

      .cls-7 {
        fill: url(#Degradado_sin_nombre_17-4);
      }
    </style>
    <linearGradient id="Degradado_sin_nombre_17" data-name="Degradado sin nombre 17" x1="0" y1="143.61" x2="288.37" y2="143.61" gradientUnits="userSpaceOnUse">
      <stop offset="0" stop-color="#589cff"/>
      <stop offset="1" stop-color="#0044a9"/>
    </linearGradient>
    <linearGradient id="Degradado_sin_nombre_17-2" data-name="Degradado sin nombre 17" x1="87.36" y1="39.93" x2="110.23" y2="39.93" gradientTransform="translate(-6.89 5.65) rotate(-.1)" xlink:href="#Degradado_sin_nombre_17"/>
    <linearGradient id="Degradado_sin_nombre_17-3" data-name="Degradado sin nombre 17" x1="69.27" y1="190.83" x2="102.13" y2="190.83" gradientTransform="translate(-31.49 -94.87) rotate(-13.62)" xlink:href="#Degradado_sin_nombre_17"/>
    <linearGradient id="Degradado_sin_nombre_17-4" data-name="Degradado sin nombre 17" x1="89.94" y1="54.66" x2="210.83" y2="54.66" xlink:href="#Degradado_sin_nombre_17"/>
    <linearGradient id="Degradado_sin_nombre_26" data-name="Degradado sin nombre 26" x1="80.48" y1="49.81" x2="220.92" y2="49.81" gradientUnits="userSpaceOnUse">
      <stop offset="0" stop-color="#fff"/>
      <stop offset="1" stop-color="#589cff"/>
    </linearGradient>
    <linearGradient id="Degradado_sin_nombre_26-2" data-name="Degradado sin nombre 26" x1="80.26" y1="42.18" x2="188.92" y2="42.18" xlink:href="#Degradado_sin_nombre_26"/>
  </defs>
  <g id="OBJECTS">
    <g>
      <g>
        <path class="cls-1" d="M0,157.63v-28.04h13.5c2.62,0,4.88.43,6.79,1.28s3.38,2.08,4.43,3.67c1.04,1.59,1.56,3.46,1.56,5.63s-.52,4.03-1.56,5.61c-1.04,1.58-2.52,2.8-4.43,3.67-1.91.87-4.17,1.3-6.79,1.3H5.25l4.21-4.05v10.93H0ZM9.45,147.74l-4.21-4.29h7.65c1.31,0,2.28-.29,2.9-.88.63-.59.94-1.39.94-2.4s-.31-1.82-.94-2.4c-.63-.59-1.6-.88-2.9-.88h-7.65l4.21-4.29v15.14Z"/>
        <path class="cls-1" d="M38.65,150.5h14.02v7.13h-23.31v-28.04h22.79v7.13h-13.5v13.78ZM38.01,140.01h12.5v6.81h-12.5v-6.81Z"/>
        <path class="cls-1" d="M56.31,157.63v-28.04h7.77l14.26,17.06h-3.6v-17.06h9.21v28.04h-7.77l-14.26-17.06h3.61v17.06h-9.21Z"/>
        <path class="cls-1" d="M88.51,157.63v-28.04h7.77l14.26,17.06h-3.6v-17.06h9.21v28.04h-7.77l-14.26-17.06h3.61v17.06h-9.21Z"/>
        <path class="cls-1" d="M127.92,157.63v-12.3l2.16,5.65-12.74-21.39h9.97l8.61,14.62h-5.81l8.69-14.62h9.13l-12.66,21.39,2.08-5.65v12.3h-9.45Z"/>
        <path class="cls-1" d="M147.27,149.46v-6.81h12.02v6.81h-12.02Z"/>
        <path class="cls-1" d="M163.37,157.63v-28.04h13.5c2.62,0,4.88.43,6.79,1.28s3.38,2.08,4.43,3.67,1.56,3.46,1.56,5.63-.52,4.03-1.56,5.61c-1.04,1.58-2.52,2.8-4.43,3.67-1.91.87-4.17,1.3-6.79,1.3h-8.25l4.21-4.05v10.93h-9.45ZM172.82,147.74l-4.21-4.29h7.65c1.31,0,2.28-.29,2.9-.88.63-.59.94-1.39.94-2.4s-.31-1.82-.94-2.4c-.63-.59-1.6-.88-2.9-.88h-7.65l4.21-4.29v15.14Z"/>
        <path class="cls-1" d="M192.73,157.63v-28.04h9.45v28.04h-9.45Z"/>
        <path class="cls-1" d="M206.75,157.63v-28.04h9.45v20.71h12.66v7.33h-22.11Z"/>
        <path class="cls-1" d="M245.8,158.27c-2.3,0-4.41-.36-6.35-1.08-1.94-.72-3.61-1.74-5.03-3.06-1.42-1.32-2.52-2.88-3.3-4.67-.79-1.79-1.18-3.74-1.18-5.85s.39-4.09,1.18-5.87c.79-1.78,1.89-3.32,3.3-4.65,1.42-1.32,3.09-2.34,5.03-3.06,1.94-.72,4.04-1.08,6.31-1.08s4.41.36,6.33,1.08c1.92.72,3.59,1.74,5.01,3.06,1.42,1.32,2.52,2.87,3.3,4.65.79,1.78,1.18,3.73,1.18,5.87s-.39,4.06-1.18,5.85c-.79,1.79-1.89,3.34-3.3,4.67-1.42,1.32-3.08,2.34-5.01,3.06-1.92.72-4.02,1.08-6.29,1.08ZM245.76,150.62c.88,0,1.7-.16,2.46-.48.76-.32,1.43-.78,2-1.38.57-.6,1.02-1.33,1.34-2.2.32-.87.48-1.85.48-2.94s-.16-2.08-.48-2.94c-.32-.87-.77-1.6-1.34-2.2-.58-.6-1.24-1.06-2-1.38s-1.58-.48-2.46-.48-1.7.16-2.46.48c-.76.32-1.43.78-2,1.38-.58.6-1.02,1.34-1.34,2.2-.32.87-.48,1.85-.48,2.94s.16,2.08.48,2.94c.32.87.77,1.6,1.34,2.2.57.6,1.24,1.06,2,1.38.76.32,1.58.48,2.46.48Z"/>
        <path class="cls-1" d="M270.71,157.63v-20.71h-8.21v-7.33h25.87v7.33h-8.21v20.71h-9.45Z"/>
      </g>
      <g>
        <path class="cls-5" d="M80.54,44.55h0c.56-6.61,5.86-11.81,12.48-12.25l9.15-.22,1.28,26.64-22.9-14.16Z"/>
        <path class="cls-3" d="M80.48,73.05h0c-1.44-9.41,4.22-18.47,13.31-21.29l4.7-1.46,18.72,34.84-36.74-12.09Z"/>
        <g>
          <path class="cls-7" d="M208.97,47.7l-8.47-14.67-3.71-6.43-11.09-19.2c-2.48-4.31-7.07-6.96-12.05-6.96h-46.53c-4.97,0-9.56,2.65-12.05,6.96l-23.27,40.3c-.32.56-.61,1.14-.84,1.72-1.61,3.95-1.33,8.45.84,12.19l4.4,7.62,3.74,6.48,14.89,25.8.24.4c2.48,4.31,7.07,6.96,12.05,6.96h46.53c4.97,0,9.56-2.65,12.05-6.96l23.27-40.3c2.49-4.31,2.49-9.61,0-13.91ZM194.47,59.89l-17.51,30.33c-1.87,3.24-5.32,5.23-9.07,5.23h-35.01c-.79,0-1.57-.09-2.32-.26-2.81-.64-5.27-2.41-6.75-4.97l-9.57-16.58-3.09-5.34-4.85-8.41c-1.58-2.74-1.83-6.02-.72-8.93.19-.52.44-1.03.72-1.53l17.51-30.33c1.87-3.24,5.32-5.23,9.07-5.23h35.01c3.74,0,7.2,1.99,9.07,5.23l1.34,2.31,5.41,9.37,2.66,4.61,5.07,8.78,3.04,5.26c1.87,3.24,1.87,7.23,0,10.46Z"/>
          <g class="cls-8">
            <path class="cls-4" d="M130.56,95.19c-2.72,1.44-5.48,2.79-8.26,4.06-2.46,1.12-4.96,1.86-7.46,2.25l-14.89-25.8c4.75-.34,9.51-1.03,14.29-2.07l9.57,16.58c1.47,2.56,3.94,4.33,6.75,4.97Z"/>
            <path class="cls-4" d="M200.5,33.03c-2.97,3.83-5.99,7.54-9.06,11.14l-5.07-8.78c3.47-2.81,6.95-5.74,10.42-8.78l3.71,6.43Z"/>
            <path class="cls-4" d="M106.3,59.89l4.85,8.41c-1.91.49-3.83.92-5.75,1.29-3.2.62-6.33.45-9.19-.35l-4.4-7.62c-2.17-3.74-2.45-8.24-.84-12.19,4.73,1.02,9.61,1.51,14.61,1.53-1.1,2.91-.86,6.19.72,8.93Z"/>
            <polygon class="cls-4" points="190.33 18.88 183.71 30.78 178.3 21.41 190.33 18.88"/>
          </g>
        </g>
        <g>
          <path class="cls-2" d="M196,11.86l10.57,2.32c-42.63,40.27-84.78,63.95-126.09,58.87,1.39,19.92,22.24,32.23,40.42,23.96,33.79-15.38,62.74-43.69,88.61-80.24l4.04,9.83,7.37-26.6-24.93,11.86Z"/>
          <path class="cls-6" d="M104,67.35c25.84-5,50.47-19.9,74.33-41.03l1.13,7.33,9.46-17.01-19.05,4,7.34,3.57c-36.09,21.01-69.09,30.66-96.67,20.33h0c-2.31,13.71,9.81,25.44,23.46,22.8Z"/>
        </g>
      </g>
    </g>
  </g>
</svg>