<?xml version="1.0" encoding="UTF-8"?>
<svg id="Layer_2" data-name="Layer 2" xmlns="http://www.w3.org/2000/svg" viewBox="0 0 259.43 56.2">
  <defs>
    <style>
      .cls-1 {
        letter-spacing: 0em;
      }

      .cls-2 {
        letter-spacing: -.03em;
      }

      .cls-3 {
        letter-spacing: 0em;
      }

      .cls-4 {
        font-family: Montserrat-SemiBold, Montserrat;
        font-size: 9.51px;
        font-weight: 600;
        letter-spacing: .3em;
      }

      .cls-4, .cls-5, .cls-6 {
        fill: #fff;
      }

      .cls-5 {
        stroke-width: 0px;
      }

      .cls-7 {
        letter-spacing: 0em;
      }

      .cls-8 {
        letter-spacing: -.01em;
      }

      .cls-6 {
        font-family: Montserrat-Black, Montserrat;
        font-size: 25.17px;
        font-weight: 800;
      }
    </style>
  </defs>
  <g id="OBJECTS">
    <g>
      <g>
        <text class="cls-6" transform="translate(76.65 31.32)"><tspan class="cls-7" x="0" y="0">P</tspan><tspan class="cls-1" x="18.45" y="0">ENN</tspan><tspan class="cls-2" x="75.87" y="0">Y</tspan><tspan x="92.86" y="0">-</tspan><tspan class="cls-8" x="102.68" y="0">P</tspan><tspan x="121.13" y="0">I</tspan><tspan class="cls-3" x="129.94" y="0">LO</tspan><tspan x="166.32" y="0">T</tspan></text>
        <text class="cls-4" transform="translate(95.58 43.76)"><tspan x="0" y="0">FINANCE IN FLIGHT</tspan></text>
      </g>
      <g>
        <path class="cls-5" d="M59.75,6.12l5.46,1.2C44.67,26.72,24.35,38.65,4.4,38.04l-3.34-1.1c-.17-2.03.35-3.98,1.4-5.59,2.29,2.67,5.92,4.17,9.8,3.42,13.34-2.58,26.05-10.27,38.37-21.18l.58,3.79,4.89-8.78-9.83,2.06,3.79,1.85c-16.97,9.88-32.62,14.89-46.04,11.67l-2.75-1.7c.49-2.62,2.67-4.58,5.38-4.76l3.37-.08-3.47,6.01c1.92.32,3.91.49,5.95.49h0c.59,0,1.19-.02,1.79-.04l8.21-14.22c.96-1.67,2.75-2.7,4.68-2.7h18.07c1.56,0,3.01.68,4.03,1.81l7.26-1.52-2.09-3.63c-1.28-2.22-3.65-3.59-6.22-3.59h-24.02c-2.57,0-4.94,1.37-6.22,3.59l-7.36,12.75-4.02.1c-3.42.22-6.15,2.91-6.44,6.32H.15c-.47,2.79.22,5.43,1.66,7.51-1.43,2.03-2.1,4.59-1.69,7.21h0c.72,10.29,11.48,16.64,20.87,12.37,17.45-7.94,32.39-22.56,45.74-41.42l2.09,5.08,3.81-13.73-12.87,6.12Z"/>
        <path class="cls-5" d="M12.45,35.78c-.73.14-1.47.21-2.19.21h0c-.67,0-1.33-.06-1.98-.18l.65,1.12c2.44-.15,4.91-.49,7.41-1.02l-.38-.65-.14-.25c-1.12.29-2.24.55-3.36.77Z"/>
        <path class="cls-5" d="M53.41,15.89l.16.27c1.78-1.44,3.57-2.95,5.38-4.54l-1.71-2.95-3.92,7.05.1.16Z"/>
        <path class="cls-5" d="M62.07,17.05l-.13-.23c-1.55,1.99-3.11,3.9-4.68,5.74l.14.24,1.57,2.71c.96,1.67.96,3.73,0,5.4l-9.04,15.66c-.96,1.67-2.75,2.7-4.68,2.7h-18.07c-.41,0-.81-.05-1.2-.13-.16-.04-.31-.08-.47-.13-1.36.71-2.72,1.38-4.1,2.01-1.19.54-2.43.93-3.68,1.17l.13.22.12.21c1.28,2.22,3.65,3.59,6.22,3.59h24.02c2.57,0,4.94-1.37,6.22-3.59l12.01-20.8c1.29-2.22,1.29-4.96,0-7.18l-4.37-7.57Z"/>
      </g>
    </g>
  </g>
</svg>