<?xml version="1.0" encoding="UTF-8"?>
<svg id="Layer_2" data-name="Layer 2" xmlns="http://www.w3.org/2000/svg" xmlns:xlink="http://www.w3.org/1999/xlink" viewBox="0 0 140.67 108.87">
  <defs>
    <style>
      .cls-1 {
        fill: url(#Degradado_sin_nombre_17);
      }

      .cls-1, .cls-2, .cls-3, .cls-4, .cls-5, .cls-6 {
        stroke-width: 0px;
      }

      .cls-2 {
        fill: url(#Degradado_sin_nombre_26);
      }

      .cls-3 {
        fill: url(#Degradado_sin_nombre_17-3);
      }

      .cls-4 {
        fill: #001738;
      }

      .cls-5 {
        fill: url(#Degradado_sin_nombre_17-2);
      }

      .cls-7 {
        opacity: .4;
      }

      .cls-6 {
        fill: url(#Degradado_sin_nombre_26-2);
      }
    </style>
    <linearGradient id="Degradado_sin_nombre_17" data-name="Degradado sin nombre 17" x1="7.1" y1="39.93" x2="29.98" y2="39.93" gradientTransform="translate(-6.89 5.51) rotate(-.1)" gradientUnits="userSpaceOnUse">
      <stop offset="0" stop-color="#589cff"/>
      <stop offset="1" stop-color="#0044a9"/>
    </linearGradient>
    <linearGradient id="Degradado_sin_nombre_17-2" data-name="Degradado sin nombre 17" x1="-10.98" y1="190.83" x2="21.87" y2="190.83" gradientTransform="translate(-33.75 -113.77) rotate(-13.62)" xlink:href="#Degradado_sin_nombre_17"/>
    <linearGradient id="Degradado_sin_nombre_17-3" data-name="Degradado sin nombre 17" x1="9.69" y1="54.66" x2="130.58" y2="54.66" gradientTransform="matrix(1,0,0,1,0,0)" xlink:href="#Degradado_sin_nombre_17"/>
    <linearGradient id="Degradado_sin_nombre_26" data-name="Degradado sin nombre 26" x1=".22" y1="49.81" x2="140.67" y2="49.81" gradientUnits="userSpaceOnUse">
      <stop offset="0" stop-color="#fff"/>
      <stop offset="1" stop-color="#589cff"/>
    </linearGradient>
    <linearGradient id="Degradado_sin_nombre_26-2" data-name="Degradado sin nombre 26" x1="0" y1="42.18" x2="108.67" y2="42.18" xlink:href="#Degradado_sin_nombre_26"/>
  </defs>
  <g id="OBJECTS">
    <g>
      <path class="cls-1" d="M.28,44.55H.28c.56-6.61,5.86-11.81,12.48-12.25l9.15-.22,1.28,26.64L.28,44.55Z"/>
      <path class="cls-5" d="M.22,73.05H.22c-1.44-9.41,4.22-18.47,13.31-21.29l4.7-1.46,18.72,34.84L.22,73.05Z"/>
      <g>
        <path class="cls-3" d="M128.71,47.7l-8.47-14.67-3.71-6.43-11.09-19.2c-2.48-4.31-7.07-6.96-12.05-6.96h-46.53c-4.97,0-9.56,2.65-12.05,6.96L11.56,47.7c-.32.56-.61,1.14-.84,1.72-1.61,3.95-1.33,8.45.84,12.19l4.4,7.62,3.74,6.48,14.89,25.8.24.4c2.48,4.31,7.07,6.96,12.05,6.96h46.53c4.97,0,9.56-2.65,12.05-6.96l23.27-40.3c2.49-4.31,2.49-9.61,0-13.91ZM114.22,59.89l-17.51,30.33c-1.87,3.24-5.32,5.23-9.07,5.23h-35.01c-.79,0-1.57-.09-2.32-.26-2.81-.64-5.27-2.41-6.75-4.97l-9.57-16.58-3.09-5.34-4.85-8.41c-1.58-2.74-1.83-6.02-.72-8.93.19-.52.44-1.03.72-1.53l17.51-30.33c1.87-3.24,5.32-5.23,9.07-5.23h35.01c3.74,0,7.2,1.99,9.07,5.23l1.34,2.31,5.41,9.37,2.66,4.61,5.07,8.78,3.04,5.26c1.87,3.24,1.87,7.23,0,10.46Z"/>
        <g class="cls-7">
          <path class="cls-4" d="M50.31,95.19c-2.72,1.44-5.48,2.79-8.26,4.06-2.46,1.12-4.96,1.86-7.46,2.25l-14.89-25.8c4.75-.34,9.51-1.03,14.29-2.07l9.57,16.58c1.47,2.56,3.94,4.33,6.75,4.97Z"/>
          <path class="cls-4" d="M120.24,33.03c-2.97,3.83-5.99,7.54-9.06,11.14l-5.07-8.78c3.47-2.81,6.95-5.74,10.42-8.78l3.71,6.43Z"/>
          <path class="cls-4" d="M26.05,59.89l4.85,8.41c-1.91.49-3.83.92-5.75,1.29-3.2.62-6.33.45-9.19-.35l-4.4-7.62c-2.17-3.74-2.45-8.24-.84-12.19,4.73,1.02,9.61,1.51,14.61,1.53-1.1,2.91-.86,6.19.72,8.93Z"/>
          <polygon class="cls-4" points="110.07 18.88 103.45 30.78 98.04 21.41 110.07 18.88"/>
        </g>
      </g>
      <g>
        <path class="cls-2" d="M115.74,11.86l10.57,2.32C83.68,54.45,41.53,78.13.22,73.05c1.39,19.92,22.24,32.23,40.42,23.96,33.79-15.38,62.74-43.69,88.61-80.24l4.04,9.83,7.37-26.6-24.93,11.86Z"/>
        <path class="cls-6" d="M23.75,67.35c25.84-5,50.47-19.9,74.33-41.03l1.13,7.33,9.46-17.01-19.05,4,7.34,3.57C60.86,45.23,27.86,54.87.28,44.55H.28c-2.31,13.71,9.81,25.44,23.46,22.8Z"/>
      </g>
    </g>
  </g>
</svg>